<svg width="10" height="10" viewBox="0 0 10 10" fill="none" xmlns="http://www.w3.org/2000/svg">
<path d="M7.29309 0H2.70691C1.21429 0 0 1.21429 0 2.70691V7.29317C0 8.78571 1.21429 10 2.70691 10H7.29317C8.78571 10 10 8.78571 10 7.29317V2.70691C10 1.21429 8.78571 0 7.29309 0ZM5 7.7343C3.49228 7.7343 2.2657 6.50772 2.2657 5C2.2657 3.49228 3.49228 2.2657 5 2.2657C6.50772 2.2657 7.7343 3.49228 7.7343 5C7.7343 6.50772 6.50772 7.7343 5 7.7343ZM7.79968 2.91054C7.35413 2.91054 6.99173 2.54814 6.99173 2.10258C6.99173 1.65703 7.35413 1.29456 7.79968 1.29456C8.24524 1.29456 8.60771 1.65703 8.60771 2.10258C8.60771 2.54814 8.24524 2.91054 7.79968 2.91054Z" fill="white"/>
</svg>
